<?xml version="1.0" standalone="no"?>
<!DOCTYPE svg PUBLIC "-//W3C//DTD SVG 20010904//EN"
 "http://www.w3.org/TR/2001/REC-SVG-20010904/DTD/svg10.dtd">
<svg version="1.0" xmlns="http://www.w3.org/2000/svg"
 width="2560.000000pt" height="2560.000000pt" viewBox="0 0 2560.000000 2560.000000"
 preserveAspectRatio="xMidYMid meet">
<metadata>
Created by potrace 1.14, written by Peter Selinger 2001-2017
</metadata>
<g transform="translate(0.000000,2560.000000) scale(0.100000,-0.100000)"
fill="#000000" stroke="none">
<path d="M2000 15190 l0 -6290 1000 0 1000 0 2 4629 3 4628 2190 -2103 c1204
-1157 2192 -2104 2195 -2104 3 0 991 947 2195 2105 l2190 2104 3 -4630 2
-4629 1000 0 1000 0 0 6290 0 6290 -672 0 -673 0 -1165 -1157 c-641 -636
-1776 -1764 -2523 -2507 l-1358 -1350 -2507 2507 -2507 2507 -688 0 -687 0 0
-6290z"/>
<path d="M17130 15190 l0 -6290 3715 0 3715 0 0 900 0 900 -2695 0 -2695 0 0
5390 0 5390 -1020 0 -1020 0 0 -6290z"/>
<path d="M3488 7820 c-676 -50 -1288 -467 -1583 -1082 -164 -342 -217 -709
-160 -1115 106 -756 607 -1318 1342 -1504 179 -45 325 -62 533 -62 475 0 880
152 1249 467 45 38 81 74 81 80 0 6 -86 97 -192 203 l-192 192 -68 -64 c-162
-154 -346 -254 -573 -311 -139 -36 -359 -44 -506 -19 -273 45 -494 159 -692
353 -192 191 -312 415 -374 702 -14 67 -18 128 -18 285 1 180 3 211 27 311 34
143 94 297 159 404 192 319 483 526 851 607 116 25 399 25 515 0 238 -51 447
-159 616 -316 l63 -60 197 197 c108 109 197 200 197 204 0 11 -83 86 -168 151
-357 274 -831 411 -1304 377z"/>
<path d="M5475 7768 c-3 -7 -4 -834 -3 -1838 l3 -1825 1613 -3 1612 -2 0 265
0 265 -1315 0 -1315 0 2 523 3 522 1293 3 1292 2 0 260 0 260 -1295 0 -1295 0
0 525 0 525 1315 0 1315 0 0 265 0 265 -1610 0 c-1279 0 -1612 -3 -1615 -12z"/>
<path d="M9330 5940 l0 -1840 295 0 295 0 0 1389 c0 765 3 1392 8 1394 4 3
600 -623 1325 -1389 l1318 -1394 250 0 249 0 -2 1838 -3 1837 -292 3 -293 2 0
-1396 c0 -767 -4 -1394 -8 -1392 -5 2 -601 630 -1325 1396 l-1317 1392 -250 0
-250 0 0 -1840z"/>
<path d="M13570 7515 l0 -265 675 0 675 0 2 -1572 3 -1573 288 -3 287 -2 0
1575 0 1575 678 2 677 3 0 260 0 260 -1642 3 -1643 2 0 -265z"/>
<path d="M17355 7768 c-3 -7 -4 -834 -3 -1838 l3 -1825 1613 -3 1612 -2 0 265
0 265 -1315 0 -1315 0 0 525 0 525 1295 0 1295 0 0 260 0 260 -1295 0 -1295 0
0 525 0 525 1315 0 1315 0 0 265 0 265 -1610 0 c-1279 0 -1612 -3 -1615 -12z"/>
<path d="M21210 5940 l0 -1840 295 0 295 0 2 788 3 787 675 0 675 0 282 -675
c154 -371 302 -726 328 -787 l47 -113 304 0 c167 0 304 4 304 8 0 5 -151 372
-335 817 -184 445 -333 810 -332 810 1 1 45 22 98 48 320 157 537 481 567 847
34 398 -132 757 -446 967 -152 102 -315 156 -519 173 -67 5 -576 10 -1180 10
l-1063 0 0 -1840z m2263 1287 c80 -28 163 -76 210 -124 50 -50 106 -150 128
-228 18 -64 18 -235 0 -300 -48 -172 -164 -292 -341 -351 -51 -17 -111 -19
-862 -22 l-808 -3 0 526 0 526 813 -4 c728 -2 817 -5 860 -20z"/>
</g>
</svg>
